# xmcd
#
# Track frame offsets: 
#        150
#        33580
#        56163
#        77174
#        87431
#        104954
#        120464
#        166596
#
# Disc length: 2530 seconds
#
# Revision: 0
# Processed by: cddbd v1.5.2PL0 Copyright (c) Steve Scherf et al.
# Submitted via: ExactAudioCopy v1.3
#
DISCID=6609e008
DTITLE=Bo Diddley - My Kind Of Blues
DYEAR=2017
DGENRE=Blues
TTITLE0=Intro - Bo Diddley Vamp
TTITLE1=Doctor Jekyll
TTITLE2=Everleen
TTITLE3=I Don't Know Where I Been
TTITLE4=You Can't Judge A Book
TTITLE5=Roadrunner
TTITLE6=I'm A Man
TTITLE7=Mona
EXTD=
EXTT0=
EXTT1=
EXTT2=
EXTT3=
EXTT4=
EXTT5=
EXTT6=
EXTT7=
PLAYORDER=
